<mxfile host="Electron" modified="2025-09-03T22:16:25.973Z" agent="Mozilla/5.0 (Windows NT 10.0; Win64; x64) AppleWebKit/537.36 (KHTML, like Gecko) draw.io/21.2.1 Chrome/112.0.5615.87 Electron/24.1.2 Safari/537.36" etag="z4zo90iofLtl5REuUjFx" version="21.2.1" type="device">
  <diagram name="Página-1" id="he6POHFgDhRKdMTV_QJA">
    <mxGraphModel dx="1434" dy="844" grid="1" gridSize="10" guides="1" tooltips="1" connect="1" arrows="1" fold="1" page="1" pageScale="1" pageWidth="123400" pageHeight="123400" math="0" shadow="0">
      <root>
        <mxCell id="0" />
        <mxCell id="1" parent="0" />
        <mxCell id="4oiUyb5rkIhIpVKBp3r5-76" value="" style="rounded=0;whiteSpace=wrap;html=1;fillColor=none;dashed=1;strokeColor=#B20000;fontColor=#ffffff;strokeWidth=5;" parent="1" vertex="1">
          <mxGeometry x="580" y="450" width="920" height="1060" as="geometry" />
        </mxCell>
        <mxCell id="4oiUyb5rkIhIpVKBp3r5-4" style="rounded=0;orthogonalLoop=1;jettySize=auto;html=1;exitX=1;exitY=0.3333333333333333;exitDx=0;exitDy=0;exitPerimeter=0;entryX=0;entryY=0.5;entryDx=0;entryDy=0;endArrow=none;endFill=0;" parent="1" source="4oiUyb5rkIhIpVKBp3r5-1" target="4oiUyb5rkIhIpVKBp3r5-3" edge="1">
          <mxGeometry relative="1" as="geometry" />
        </mxCell>
        <mxCell id="4oiUyb5rkIhIpVKBp3r5-1" value="Usuario" style="shape=umlActor;verticalLabelPosition=bottom;verticalAlign=top;html=1;outlineConnect=0;" parent="1" vertex="1">
          <mxGeometry x="540" y="510" width="30" height="60" as="geometry" />
        </mxCell>
        <mxCell id="4oiUyb5rkIhIpVKBp3r5-6" style="edgeStyle=orthogonalEdgeStyle;rounded=0;orthogonalLoop=1;jettySize=auto;html=1;entryX=0.5;entryY=0;entryDx=0;entryDy=0;" parent="1" source="4oiUyb5rkIhIpVKBp3r5-7" target="4oiUyb5rkIhIpVKBp3r5-5" edge="1">
          <mxGeometry relative="1" as="geometry" />
        </mxCell>
        <mxCell id="4oiUyb5rkIhIpVKBp3r5-10" style="rounded=0;orthogonalLoop=1;jettySize=auto;html=1;entryX=0;entryY=0.3333333333333333;entryDx=0;entryDy=0;entryPerimeter=0;endArrow=none;endFill=0;" parent="1" source="4oiUyb5rkIhIpVKBp3r5-3" target="4oiUyb5rkIhIpVKBp3r5-9" edge="1">
          <mxGeometry relative="1" as="geometry" />
        </mxCell>
        <mxCell id="4oiUyb5rkIhIpVKBp3r5-3" value="Registrarse" style="ellipse;whiteSpace=wrap;html=1;" parent="1" vertex="1">
          <mxGeometry x="680" y="470" width="120" height="80" as="geometry" />
        </mxCell>
        <mxCell id="4oiUyb5rkIhIpVKBp3r5-79" style="edgeStyle=orthogonalEdgeStyle;rounded=0;orthogonalLoop=1;jettySize=auto;html=1;" parent="1" source="4oiUyb5rkIhIpVKBp3r5-5" target="4oiUyb5rkIhIpVKBp3r5-15" edge="1">
          <mxGeometry relative="1" as="geometry" />
        </mxCell>
        <mxCell id="4oiUyb5rkIhIpVKBp3r5-5" value="Iniciar sesión" style="ellipse;whiteSpace=wrap;html=1;" parent="1" vertex="1">
          <mxGeometry x="680" y="600" width="120" height="80" as="geometry" />
        </mxCell>
        <mxCell id="4oiUyb5rkIhIpVKBp3r5-8" value="" style="edgeStyle=orthogonalEdgeStyle;rounded=0;orthogonalLoop=1;jettySize=auto;html=1;entryX=0.5;entryY=0;entryDx=0;entryDy=0;endArrow=none;endFill=0;" parent="1" source="4oiUyb5rkIhIpVKBp3r5-3" target="4oiUyb5rkIhIpVKBp3r5-7" edge="1">
          <mxGeometry relative="1" as="geometry">
            <mxPoint x="740" y="550" as="sourcePoint" />
            <mxPoint x="740" y="610" as="targetPoint" />
          </mxGeometry>
        </mxCell>
        <mxCell id="4oiUyb5rkIhIpVKBp3r5-7" value="&amp;lt;Use&amp;gt;" style="text;html=1;align=center;verticalAlign=middle;resizable=0;points=[];autosize=1;strokeColor=none;fillColor=none;" parent="1" vertex="1">
          <mxGeometry x="710" y="560" width="60" height="30" as="geometry" />
        </mxCell>
        <mxCell id="4oiUyb5rkIhIpVKBp3r5-9" value="BD" style="shape=umlActor;verticalLabelPosition=bottom;verticalAlign=top;html=1;outlineConnect=0;" parent="1" vertex="1">
          <mxGeometry x="1560" y="490" width="30" height="60" as="geometry" />
        </mxCell>
        <mxCell id="4oiUyb5rkIhIpVKBp3r5-84" style="edgeStyle=orthogonalEdgeStyle;rounded=0;orthogonalLoop=1;jettySize=auto;html=1;exitX=0.5;exitY=1;exitDx=0;exitDy=0;" parent="1" source="4oiUyb5rkIhIpVKBp3r5-86" target="4oiUyb5rkIhIpVKBp3r5-81" edge="1">
          <mxGeometry relative="1" as="geometry" />
        </mxCell>
        <mxCell id="8sPyjynm3ZmWq4ErMbRn-13" style="edgeStyle=orthogonalEdgeStyle;rounded=0;orthogonalLoop=1;jettySize=auto;html=1;exitX=1;exitY=0.5;exitDx=0;exitDy=0;entryX=0.5;entryY=0;entryDx=0;entryDy=0;" edge="1" parent="1" source="8sPyjynm3ZmWq4ErMbRn-14" target="8sPyjynm3ZmWq4ErMbRn-12">
          <mxGeometry relative="1" as="geometry" />
        </mxCell>
        <mxCell id="8sPyjynm3ZmWq4ErMbRn-54" style="rounded=0;orthogonalLoop=1;jettySize=auto;html=1;exitX=0;exitY=0;exitDx=0;exitDy=0;entryX=0.5;entryY=0.5;entryDx=0;entryDy=0;entryPerimeter=0;endArrow=none;endFill=0;" edge="1" parent="1" source="4oiUyb5rkIhIpVKBp3r5-15" target="4oiUyb5rkIhIpVKBp3r5-1">
          <mxGeometry relative="1" as="geometry">
            <Array as="points">
              <mxPoint x="710" y="580" />
            </Array>
          </mxGeometry>
        </mxCell>
        <mxCell id="4oiUyb5rkIhIpVKBp3r5-15" value="direccionar al muro" style="ellipse;whiteSpace=wrap;html=1;" parent="1" vertex="1">
          <mxGeometry x="910" y="600" width="120" height="80" as="geometry" />
        </mxCell>
        <mxCell id="4oiUyb5rkIhIpVKBp3r5-103" style="edgeStyle=orthogonalEdgeStyle;rounded=0;orthogonalLoop=1;jettySize=auto;html=1;exitX=0.5;exitY=1;exitDx=0;exitDy=0;" parent="1" source="4oiUyb5rkIhIpVKBp3r5-81" target="4oiUyb5rkIhIpVKBp3r5-102" edge="1">
          <mxGeometry relative="1" as="geometry" />
        </mxCell>
        <mxCell id="4oiUyb5rkIhIpVKBp3r5-81" value="solicitar opcion mensajes" style="ellipse;whiteSpace=wrap;html=1;" parent="1" vertex="1">
          <mxGeometry x="910.0013043478265" y="780" width="120" height="80" as="geometry" />
        </mxCell>
        <mxCell id="4oiUyb5rkIhIpVKBp3r5-87" value="" style="edgeStyle=orthogonalEdgeStyle;rounded=0;orthogonalLoop=1;jettySize=auto;html=1;exitX=0.5;exitY=1;exitDx=0;exitDy=0;endArrow=none;endFill=0;" parent="1" source="4oiUyb5rkIhIpVKBp3r5-15" target="4oiUyb5rkIhIpVKBp3r5-86" edge="1">
          <mxGeometry relative="1" as="geometry">
            <mxPoint x="970" y="680" as="sourcePoint" />
            <mxPoint x="970" y="760" as="targetPoint" />
          </mxGeometry>
        </mxCell>
        <mxCell id="4oiUyb5rkIhIpVKBp3r5-86" value="&amp;lt;Extends&amp;gt;" style="text;html=1;strokeColor=none;fillColor=none;align=center;verticalAlign=middle;whiteSpace=wrap;rounded=0;" parent="1" vertex="1">
          <mxGeometry x="940" y="720" width="60" height="30" as="geometry" />
        </mxCell>
        <mxCell id="4oiUyb5rkIhIpVKBp3r5-90" style="edgeStyle=orthogonalEdgeStyle;rounded=0;orthogonalLoop=1;jettySize=auto;html=1;exitX=0.5;exitY=1;exitDx=0;exitDy=0;" parent="1" source="4oiUyb5rkIhIpVKBp3r5-93" target="4oiUyb5rkIhIpVKBp3r5-91" edge="1">
          <mxGeometry relative="1" as="geometry" />
        </mxCell>
        <mxCell id="4oiUyb5rkIhIpVKBp3r5-115" style="edgeStyle=orthogonalEdgeStyle;rounded=0;orthogonalLoop=1;jettySize=auto;html=1;" parent="1" source="4oiUyb5rkIhIpVKBp3r5-91" target="4oiUyb5rkIhIpVKBp3r5-114" edge="1">
          <mxGeometry relative="1" as="geometry" />
        </mxCell>
        <mxCell id="4oiUyb5rkIhIpVKBp3r5-91" value="solicitar opcion &lt;br&gt;perfil" style="ellipse;whiteSpace=wrap;html=1;" parent="1" vertex="1">
          <mxGeometry x="1070.0013043478266" y="780" width="120" height="80" as="geometry" />
        </mxCell>
        <mxCell id="4oiUyb5rkIhIpVKBp3r5-92" value="" style="edgeStyle=orthogonalEdgeStyle;rounded=0;orthogonalLoop=1;jettySize=auto;html=1;exitX=1;exitY=1;exitDx=0;exitDy=0;endArrow=none;endFill=0;" parent="1" source="4oiUyb5rkIhIpVKBp3r5-15" target="4oiUyb5rkIhIpVKBp3r5-93" edge="1">
          <mxGeometry relative="1" as="geometry">
            <mxPoint x="1170" y="680" as="sourcePoint" />
            <mxPoint x="1170" y="760" as="targetPoint" />
          </mxGeometry>
        </mxCell>
        <mxCell id="4oiUyb5rkIhIpVKBp3r5-93" value="&amp;lt;Extends&amp;gt;" style="text;html=1;strokeColor=none;fillColor=none;align=center;verticalAlign=middle;whiteSpace=wrap;rounded=0;" parent="1" vertex="1">
          <mxGeometry x="1100" y="720" width="60" height="30" as="geometry" />
        </mxCell>
        <mxCell id="4oiUyb5rkIhIpVKBp3r5-94" style="edgeStyle=orthogonalEdgeStyle;rounded=0;orthogonalLoop=1;jettySize=auto;html=1;exitX=0.5;exitY=1;exitDx=0;exitDy=0;" parent="1" source="4oiUyb5rkIhIpVKBp3r5-97" target="4oiUyb5rkIhIpVKBp3r5-95" edge="1">
          <mxGeometry relative="1" as="geometry" />
        </mxCell>
        <mxCell id="4oiUyb5rkIhIpVKBp3r5-99" style="edgeStyle=orthogonalEdgeStyle;rounded=0;orthogonalLoop=1;jettySize=auto;html=1;entryX=0.5;entryY=0;entryDx=0;entryDy=0;" parent="1" source="4oiUyb5rkIhIpVKBp3r5-95" target="4oiUyb5rkIhIpVKBp3r5-98" edge="1">
          <mxGeometry relative="1" as="geometry" />
        </mxCell>
        <mxCell id="4oiUyb5rkIhIpVKBp3r5-95" value="solicitar opción&lt;br&gt;crear post" style="ellipse;whiteSpace=wrap;html=1;" parent="1" vertex="1">
          <mxGeometry x="750.0013043478266" y="800" width="120" height="80" as="geometry" />
        </mxCell>
        <mxCell id="4oiUyb5rkIhIpVKBp3r5-96" value="" style="edgeStyle=orthogonalEdgeStyle;rounded=0;orthogonalLoop=1;jettySize=auto;html=1;exitX=0;exitY=1;exitDx=0;exitDy=0;endArrow=none;endFill=0;" parent="1" source="4oiUyb5rkIhIpVKBp3r5-15" target="4oiUyb5rkIhIpVKBp3r5-97" edge="1">
          <mxGeometry relative="1" as="geometry">
            <mxPoint x="810" y="700" as="sourcePoint" />
            <mxPoint x="810" y="780" as="targetPoint" />
          </mxGeometry>
        </mxCell>
        <mxCell id="4oiUyb5rkIhIpVKBp3r5-97" value="&amp;lt;Extends&amp;gt;" style="text;html=1;strokeColor=none;fillColor=none;align=center;verticalAlign=middle;whiteSpace=wrap;rounded=0;" parent="1" vertex="1">
          <mxGeometry x="780" y="740" width="60" height="30" as="geometry" />
        </mxCell>
        <mxCell id="4oiUyb5rkIhIpVKBp3r5-101" style="edgeStyle=orthogonalEdgeStyle;rounded=0;orthogonalLoop=1;jettySize=auto;html=1;exitX=0.5;exitY=1;exitDx=0;exitDy=0;entryX=0.5;entryY=0;entryDx=0;entryDy=0;" parent="1" source="4oiUyb5rkIhIpVKBp3r5-98" target="4oiUyb5rkIhIpVKBp3r5-100" edge="1">
          <mxGeometry relative="1" as="geometry" />
        </mxCell>
        <mxCell id="8sPyjynm3ZmWq4ErMbRn-55" style="edgeStyle=orthogonalEdgeStyle;rounded=0;orthogonalLoop=1;jettySize=auto;html=1;exitX=0;exitY=0;exitDx=0;exitDy=0;entryX=1;entryY=1;entryDx=0;entryDy=0;entryPerimeter=0;endArrow=none;endFill=0;" edge="1" parent="1" source="4oiUyb5rkIhIpVKBp3r5-98" target="4oiUyb5rkIhIpVKBp3r5-1">
          <mxGeometry relative="1" as="geometry">
            <Array as="points">
              <mxPoint x="600" y="942" />
              <mxPoint x="600" y="570" />
            </Array>
          </mxGeometry>
        </mxCell>
        <mxCell id="4oiUyb5rkIhIpVKBp3r5-98" value="mostrar página de creación de post" style="ellipse;whiteSpace=wrap;html=1;" parent="1" vertex="1">
          <mxGeometry x="750" y="930" width="120" height="80" as="geometry" />
        </mxCell>
        <mxCell id="8sPyjynm3ZmWq4ErMbRn-52" style="edgeStyle=orthogonalEdgeStyle;rounded=0;orthogonalLoop=1;jettySize=auto;html=1;exitX=0.5;exitY=1;exitDx=0;exitDy=0;entryX=1;entryY=0.3333333333333333;entryDx=0;entryDy=0;entryPerimeter=0;endArrow=none;endFill=0;" edge="1" parent="1" source="4oiUyb5rkIhIpVKBp3r5-100" target="4oiUyb5rkIhIpVKBp3r5-9">
          <mxGeometry relative="1" as="geometry">
            <Array as="points">
              <mxPoint x="810" y="1380" />
              <mxPoint x="1650" y="1380" />
              <mxPoint x="1650" y="510" />
            </Array>
          </mxGeometry>
        </mxCell>
        <mxCell id="4oiUyb5rkIhIpVKBp3r5-100" value="solicitar datos de post" style="ellipse;whiteSpace=wrap;html=1;" parent="1" vertex="1">
          <mxGeometry x="750" y="1040" width="120" height="80" as="geometry" />
        </mxCell>
        <mxCell id="4oiUyb5rkIhIpVKBp3r5-105" style="edgeStyle=orthogonalEdgeStyle;rounded=0;orthogonalLoop=1;jettySize=auto;html=1;exitX=0.5;exitY=1;exitDx=0;exitDy=0;entryX=0.5;entryY=0;entryDx=0;entryDy=0;" parent="1" source="4oiUyb5rkIhIpVKBp3r5-106" target="4oiUyb5rkIhIpVKBp3r5-104" edge="1">
          <mxGeometry relative="1" as="geometry" />
        </mxCell>
        <mxCell id="8sPyjynm3ZmWq4ErMbRn-56" style="edgeStyle=orthogonalEdgeStyle;rounded=0;orthogonalLoop=1;jettySize=auto;html=1;exitX=0;exitY=0.5;exitDx=0;exitDy=0;entryX=0.25;entryY=0.1;entryDx=0;entryDy=0;entryPerimeter=0;endArrow=none;endFill=0;" edge="1" parent="1" source="4oiUyb5rkIhIpVKBp3r5-102" target="4oiUyb5rkIhIpVKBp3r5-1">
          <mxGeometry relative="1" as="geometry">
            <Array as="points">
              <mxPoint x="910" y="920" />
              <mxPoint x="440" y="920" />
              <mxPoint x="440" y="516" />
            </Array>
          </mxGeometry>
        </mxCell>
        <mxCell id="4oiUyb5rkIhIpVKBp3r5-102" value="mostrar página de mensajes" style="ellipse;whiteSpace=wrap;html=1;" parent="1" vertex="1">
          <mxGeometry x="910" y="910" width="120" height="80" as="geometry" />
        </mxCell>
        <mxCell id="4oiUyb5rkIhIpVKBp3r5-109" style="edgeStyle=orthogonalEdgeStyle;rounded=0;orthogonalLoop=1;jettySize=auto;html=1;entryX=0.5;entryY=0;entryDx=0;entryDy=0;" parent="1" source="4oiUyb5rkIhIpVKBp3r5-104" target="4oiUyb5rkIhIpVKBp3r5-108" edge="1">
          <mxGeometry relative="1" as="geometry" />
        </mxCell>
        <mxCell id="4oiUyb5rkIhIpVKBp3r5-104" value="solicitar elección de chat" style="ellipse;whiteSpace=wrap;html=1;" parent="1" vertex="1">
          <mxGeometry x="910" y="1070" width="120" height="80" as="geometry" />
        </mxCell>
        <mxCell id="4oiUyb5rkIhIpVKBp3r5-107" value="" style="edgeStyle=orthogonalEdgeStyle;rounded=0;orthogonalLoop=1;jettySize=auto;html=1;exitX=0.5;exitY=1;exitDx=0;exitDy=0;entryX=0.5;entryY=0;entryDx=0;entryDy=0;endArrow=none;endFill=0;" parent="1" source="4oiUyb5rkIhIpVKBp3r5-102" target="4oiUyb5rkIhIpVKBp3r5-106" edge="1">
          <mxGeometry relative="1" as="geometry">
            <mxPoint x="970" y="990" as="sourcePoint" />
            <mxPoint x="970" y="1050" as="targetPoint" />
          </mxGeometry>
        </mxCell>
        <mxCell id="4oiUyb5rkIhIpVKBp3r5-106" value="&amp;lt;Extends&amp;gt;" style="text;html=1;strokeColor=none;fillColor=none;align=center;verticalAlign=middle;whiteSpace=wrap;rounded=0;" parent="1" vertex="1">
          <mxGeometry x="940" y="1020" width="60" height="30" as="geometry" />
        </mxCell>
        <mxCell id="8sPyjynm3ZmWq4ErMbRn-2" style="edgeStyle=orthogonalEdgeStyle;rounded=0;orthogonalLoop=1;jettySize=auto;html=1;exitX=1;exitY=0.5;exitDx=0;exitDy=0;" edge="1" parent="1" source="4oiUyb5rkIhIpVKBp3r5-108" target="8sPyjynm3ZmWq4ErMbRn-1">
          <mxGeometry relative="1" as="geometry" />
        </mxCell>
        <mxCell id="8sPyjynm3ZmWq4ErMbRn-30" style="edgeStyle=orthogonalEdgeStyle;rounded=0;orthogonalLoop=1;jettySize=auto;html=1;exitX=0.5;exitY=1;exitDx=0;exitDy=0;entryX=0;entryY=0.5;entryDx=0;entryDy=0;" edge="1" parent="1" source="8sPyjynm3ZmWq4ErMbRn-32" target="8sPyjynm3ZmWq4ErMbRn-28">
          <mxGeometry relative="1" as="geometry" />
        </mxCell>
        <mxCell id="8sPyjynm3ZmWq4ErMbRn-34" style="edgeStyle=orthogonalEdgeStyle;rounded=0;orthogonalLoop=1;jettySize=auto;html=1;exitX=0.5;exitY=1;exitDx=0;exitDy=0;entryX=0.5;entryY=0;entryDx=0;entryDy=0;endArrow=none;endFill=0;" edge="1" parent="1" source="4oiUyb5rkIhIpVKBp3r5-108" target="8sPyjynm3ZmWq4ErMbRn-32">
          <mxGeometry relative="1" as="geometry" />
        </mxCell>
        <mxCell id="8sPyjynm3ZmWq4ErMbRn-57" style="edgeStyle=orthogonalEdgeStyle;rounded=0;orthogonalLoop=1;jettySize=auto;html=1;exitX=0;exitY=0.5;exitDx=0;exitDy=0;entryX=0.5;entryY=0;entryDx=0;entryDy=0;entryPerimeter=0;endArrow=none;endFill=0;" edge="1" parent="1" source="4oiUyb5rkIhIpVKBp3r5-108" target="4oiUyb5rkIhIpVKBp3r5-1">
          <mxGeometry relative="1" as="geometry">
            <Array as="points">
              <mxPoint x="420" y="1230" />
              <mxPoint x="420" y="490" />
              <mxPoint x="555" y="490" />
            </Array>
          </mxGeometry>
        </mxCell>
        <mxCell id="4oiUyb5rkIhIpVKBp3r5-108" value="mostrar chat elegido" style="ellipse;whiteSpace=wrap;html=1;" parent="1" vertex="1">
          <mxGeometry x="910" y="1190" width="120" height="80" as="geometry" />
        </mxCell>
        <mxCell id="8sPyjynm3ZmWq4ErMbRn-58" style="edgeStyle=orthogonalEdgeStyle;rounded=0;orthogonalLoop=1;jettySize=auto;html=1;exitX=0.5;exitY=1;exitDx=0;exitDy=0;entryX=0.5;entryY=0.5;entryDx=0;entryDy=0;entryPerimeter=0;endArrow=none;endFill=0;" edge="1" parent="1" source="4oiUyb5rkIhIpVKBp3r5-114" target="4oiUyb5rkIhIpVKBp3r5-1">
          <mxGeometry relative="1" as="geometry">
            <Array as="points">
              <mxPoint x="1200" y="990" />
              <mxPoint x="1200" y="1460" />
              <mxPoint x="400" y="1460" />
              <mxPoint x="400" y="540" />
            </Array>
          </mxGeometry>
        </mxCell>
        <mxCell id="8sPyjynm3ZmWq4ErMbRn-59" style="edgeStyle=orthogonalEdgeStyle;rounded=0;orthogonalLoop=1;jettySize=auto;html=1;exitX=0;exitY=0.5;exitDx=0;exitDy=0;entryX=0.75;entryY=0.1;entryDx=0;entryDy=0;entryPerimeter=0;endArrow=none;endFill=0;" edge="1" parent="1" source="4oiUyb5rkIhIpVKBp3r5-114" target="4oiUyb5rkIhIpVKBp3r5-1">
          <mxGeometry relative="1" as="geometry">
            <Array as="points">
              <mxPoint x="880" y="950" />
              <mxPoint x="880" y="516" />
            </Array>
          </mxGeometry>
        </mxCell>
        <mxCell id="4oiUyb5rkIhIpVKBp3r5-114" value="mostrar página de perfil" style="ellipse;whiteSpace=wrap;html=1;" parent="1" vertex="1">
          <mxGeometry x="1070" y="910" width="120" height="80" as="geometry" />
        </mxCell>
        <mxCell id="8sPyjynm3ZmWq4ErMbRn-50" style="edgeStyle=orthogonalEdgeStyle;rounded=0;orthogonalLoop=1;jettySize=auto;html=1;exitX=1;exitY=0.5;exitDx=0;exitDy=0;entryX=1;entryY=1;entryDx=0;entryDy=0;entryPerimeter=0;endArrow=none;endFill=0;" edge="1" parent="1" source="8sPyjynm3ZmWq4ErMbRn-1" target="4oiUyb5rkIhIpVKBp3r5-9">
          <mxGeometry relative="1" as="geometry" />
        </mxCell>
        <mxCell id="8sPyjynm3ZmWq4ErMbRn-1" value="solicitar mensaje" style="ellipse;whiteSpace=wrap;html=1;" vertex="1" parent="1">
          <mxGeometry x="1080" y="1190" width="120" height="80" as="geometry" />
        </mxCell>
        <mxCell id="8sPyjynm3ZmWq4ErMbRn-17" style="edgeStyle=orthogonalEdgeStyle;rounded=0;orthogonalLoop=1;jettySize=auto;html=1;exitX=0.5;exitY=1;exitDx=0;exitDy=0;" edge="1" parent="1" source="8sPyjynm3ZmWq4ErMbRn-12" target="8sPyjynm3ZmWq4ErMbRn-16">
          <mxGeometry relative="1" as="geometry" />
        </mxCell>
        <mxCell id="8sPyjynm3ZmWq4ErMbRn-12" value="solicitar ingreso a un post" style="ellipse;whiteSpace=wrap;html=1;" vertex="1" parent="1">
          <mxGeometry x="1210" y="695" width="120" height="80" as="geometry" />
        </mxCell>
        <mxCell id="8sPyjynm3ZmWq4ErMbRn-15" value="" style="edgeStyle=orthogonalEdgeStyle;rounded=0;orthogonalLoop=1;jettySize=auto;html=1;exitX=1;exitY=0.5;exitDx=0;exitDy=0;entryX=0;entryY=0.5;entryDx=0;entryDy=0;endArrow=none;endFill=0;" edge="1" parent="1" source="4oiUyb5rkIhIpVKBp3r5-15" target="8sPyjynm3ZmWq4ErMbRn-14">
          <mxGeometry relative="1" as="geometry">
            <mxPoint x="1030" y="640" as="sourcePoint" />
            <mxPoint x="1270" y="695" as="targetPoint" />
          </mxGeometry>
        </mxCell>
        <mxCell id="8sPyjynm3ZmWq4ErMbRn-14" value="&amp;lt;Extends&amp;gt;" style="text;html=1;strokeColor=none;fillColor=none;align=center;verticalAlign=middle;whiteSpace=wrap;rounded=0;" vertex="1" parent="1">
          <mxGeometry x="1100" y="625" width="60" height="30" as="geometry" />
        </mxCell>
        <mxCell id="8sPyjynm3ZmWq4ErMbRn-20" style="edgeStyle=orthogonalEdgeStyle;rounded=0;orthogonalLoop=1;jettySize=auto;html=1;exitX=0.5;exitY=1;exitDx=0;exitDy=0;" edge="1" parent="1" source="8sPyjynm3ZmWq4ErMbRn-22" target="8sPyjynm3ZmWq4ErMbRn-18">
          <mxGeometry relative="1" as="geometry" />
        </mxCell>
        <mxCell id="8sPyjynm3ZmWq4ErMbRn-21" style="edgeStyle=orthogonalEdgeStyle;rounded=0;orthogonalLoop=1;jettySize=auto;html=1;exitX=1;exitY=0.5;exitDx=0;exitDy=0;" edge="1" parent="1" source="8sPyjynm3ZmWq4ErMbRn-24" target="8sPyjynm3ZmWq4ErMbRn-19">
          <mxGeometry relative="1" as="geometry" />
        </mxCell>
        <mxCell id="8sPyjynm3ZmWq4ErMbRn-60" style="edgeStyle=orthogonalEdgeStyle;rounded=0;orthogonalLoop=1;jettySize=auto;html=1;exitX=0;exitY=0.5;exitDx=0;exitDy=0;entryX=0;entryY=1;entryDx=0;entryDy=0;entryPerimeter=0;endArrow=none;endFill=0;" edge="1" parent="1" source="8sPyjynm3ZmWq4ErMbRn-16" target="4oiUyb5rkIhIpVKBp3r5-1">
          <mxGeometry relative="1" as="geometry">
            <Array as="points">
              <mxPoint x="1210" y="880" />
              <mxPoint x="540" y="880" />
            </Array>
          </mxGeometry>
        </mxCell>
        <mxCell id="8sPyjynm3ZmWq4ErMbRn-16" value="mostrar post seleccionado" style="ellipse;whiteSpace=wrap;html=1;" vertex="1" parent="1">
          <mxGeometry x="1210" y="820" width="120" height="80" as="geometry" />
        </mxCell>
        <mxCell id="8sPyjynm3ZmWq4ErMbRn-48" style="edgeStyle=orthogonalEdgeStyle;rounded=0;orthogonalLoop=1;jettySize=auto;html=1;exitX=0.5;exitY=1;exitDx=0;exitDy=0;entryX=0;entryY=1;entryDx=0;entryDy=0;entryPerimeter=0;endArrow=none;endFill=0;" edge="1" parent="1" source="8sPyjynm3ZmWq4ErMbRn-18" target="4oiUyb5rkIhIpVKBp3r5-9">
          <mxGeometry relative="1" as="geometry">
            <Array as="points">
              <mxPoint x="1270" y="1120" />
              <mxPoint x="1560" y="1120" />
            </Array>
          </mxGeometry>
        </mxCell>
        <mxCell id="8sPyjynm3ZmWq4ErMbRn-18" value="solicitar un comentario" style="ellipse;whiteSpace=wrap;html=1;" vertex="1" parent="1">
          <mxGeometry x="1210" y="990" width="120" height="80" as="geometry" />
        </mxCell>
        <mxCell id="8sPyjynm3ZmWq4ErMbRn-49" style="edgeStyle=orthogonalEdgeStyle;rounded=0;orthogonalLoop=1;jettySize=auto;html=1;exitX=0.5;exitY=1;exitDx=0;exitDy=0;entryX=0.5;entryY=0.65;entryDx=0;entryDy=0;entryPerimeter=0;endArrow=none;endFill=0;" edge="1" parent="1" source="8sPyjynm3ZmWq4ErMbRn-19" target="4oiUyb5rkIhIpVKBp3r5-9">
          <mxGeometry relative="1" as="geometry">
            <Array as="points">
              <mxPoint x="1430" y="1080" />
              <mxPoint x="1530" y="1080" />
              <mxPoint x="1530" y="529" />
            </Array>
          </mxGeometry>
        </mxCell>
        <mxCell id="8sPyjynm3ZmWq4ErMbRn-19" value="solicitar valoración" style="ellipse;whiteSpace=wrap;html=1;" vertex="1" parent="1">
          <mxGeometry x="1370" y="990" width="120" height="80" as="geometry" />
        </mxCell>
        <mxCell id="8sPyjynm3ZmWq4ErMbRn-23" value="" style="edgeStyle=orthogonalEdgeStyle;rounded=0;orthogonalLoop=1;jettySize=auto;html=1;exitX=0.5;exitY=1;exitDx=0;exitDy=0;endArrow=none;endFill=0;" edge="1" parent="1" source="8sPyjynm3ZmWq4ErMbRn-16" target="8sPyjynm3ZmWq4ErMbRn-22">
          <mxGeometry relative="1" as="geometry">
            <mxPoint x="1270" y="900" as="sourcePoint" />
            <mxPoint x="1270" y="950" as="targetPoint" />
          </mxGeometry>
        </mxCell>
        <mxCell id="8sPyjynm3ZmWq4ErMbRn-22" value="&amp;lt;Extends&amp;gt;" style="text;html=1;strokeColor=none;fillColor=none;align=center;verticalAlign=middle;whiteSpace=wrap;rounded=0;" vertex="1" parent="1">
          <mxGeometry x="1240" y="930" width="60" height="30" as="geometry" />
        </mxCell>
        <mxCell id="8sPyjynm3ZmWq4ErMbRn-25" value="" style="edgeStyle=orthogonalEdgeStyle;rounded=0;orthogonalLoop=1;jettySize=auto;html=1;exitX=1;exitY=0.5;exitDx=0;exitDy=0;endArrow=none;endFill=0;" edge="1" parent="1" source="8sPyjynm3ZmWq4ErMbRn-16" target="8sPyjynm3ZmWq4ErMbRn-24">
          <mxGeometry relative="1" as="geometry">
            <mxPoint x="1330" y="860" as="sourcePoint" />
            <mxPoint x="1420" y="950" as="targetPoint" />
          </mxGeometry>
        </mxCell>
        <mxCell id="8sPyjynm3ZmWq4ErMbRn-24" value="&amp;lt;Extends&amp;gt;" style="text;html=1;strokeColor=none;fillColor=none;align=center;verticalAlign=middle;whiteSpace=wrap;rounded=0;" vertex="1" parent="1">
          <mxGeometry x="1350" y="845" width="60" height="30" as="geometry" />
        </mxCell>
        <mxCell id="8sPyjynm3ZmWq4ErMbRn-51" style="edgeStyle=orthogonalEdgeStyle;rounded=0;orthogonalLoop=1;jettySize=auto;html=1;exitX=1;exitY=0.5;exitDx=0;exitDy=0;entryX=0.5;entryY=0.5;entryDx=0;entryDy=0;entryPerimeter=0;endArrow=none;endFill=0;" edge="1" parent="1" source="8sPyjynm3ZmWq4ErMbRn-28" target="4oiUyb5rkIhIpVKBp3r5-9">
          <mxGeometry relative="1" as="geometry">
            <Array as="points">
              <mxPoint x="1620" y="1330" />
              <mxPoint x="1620" y="520" />
            </Array>
          </mxGeometry>
        </mxCell>
        <mxCell id="8sPyjynm3ZmWq4ErMbRn-28" value="solicitar votacion en pool" style="ellipse;whiteSpace=wrap;html=1;" vertex="1" parent="1">
          <mxGeometry x="1080" y="1290" width="120" height="80" as="geometry" />
        </mxCell>
        <mxCell id="8sPyjynm3ZmWq4ErMbRn-32" value="&amp;lt;Extends&amp;gt;" style="text;html=1;strokeColor=none;fillColor=none;align=center;verticalAlign=middle;whiteSpace=wrap;rounded=0;" vertex="1" parent="1">
          <mxGeometry x="930" y="1280" width="60" height="30" as="geometry" />
        </mxCell>
        <mxCell id="8sPyjynm3ZmWq4ErMbRn-36" style="rounded=0;orthogonalLoop=1;jettySize=auto;html=1;entryX=0;entryY=0.3333333333333333;entryDx=0;entryDy=0;entryPerimeter=0;" edge="1" parent="1" source="8sPyjynm3ZmWq4ErMbRn-35" target="4oiUyb5rkIhIpVKBp3r5-1">
          <mxGeometry relative="1" as="geometry" />
        </mxCell>
        <mxCell id="8sPyjynm3ZmWq4ErMbRn-39" style="edgeStyle=orthogonalEdgeStyle;rounded=0;orthogonalLoop=1;jettySize=auto;html=1;exitX=1;exitY=0.3333333333333333;exitDx=0;exitDy=0;exitPerimeter=0;entryX=0;entryY=0.5;entryDx=0;entryDy=0;" edge="1" parent="1" source="8sPyjynm3ZmWq4ErMbRn-40" target="8sPyjynm3ZmWq4ErMbRn-38">
          <mxGeometry relative="1" as="geometry" />
        </mxCell>
        <mxCell id="8sPyjynm3ZmWq4ErMbRn-35" value="Supervisor" style="shape=umlActor;verticalLabelPosition=bottom;verticalAlign=top;html=1;outlineConnect=0;" vertex="1" parent="1">
          <mxGeometry x="470" y="690" width="30" height="60" as="geometry" />
        </mxCell>
        <mxCell id="8sPyjynm3ZmWq4ErMbRn-53" style="edgeStyle=orthogonalEdgeStyle;rounded=0;orthogonalLoop=1;jettySize=auto;html=1;exitX=0.5;exitY=1;exitDx=0;exitDy=0;entryX=0.5;entryY=0;entryDx=0;entryDy=0;entryPerimeter=0;endArrow=none;endFill=0;" edge="1" parent="1" source="8sPyjynm3ZmWq4ErMbRn-38" target="4oiUyb5rkIhIpVKBp3r5-9">
          <mxGeometry relative="1" as="geometry">
            <Array as="points">
              <mxPoint x="670" y="1420" />
              <mxPoint x="1680" y="1420" />
              <mxPoint x="1680" y="470" />
              <mxPoint x="1575" y="470" />
            </Array>
          </mxGeometry>
        </mxCell>
        <mxCell id="8sPyjynm3ZmWq4ErMbRn-38" value="solicitar opción crear pool" style="ellipse;whiteSpace=wrap;html=1;" vertex="1" parent="1">
          <mxGeometry x="610" y="730" width="120" height="80" as="geometry" />
        </mxCell>
        <mxCell id="8sPyjynm3ZmWq4ErMbRn-41" value="" style="edgeStyle=orthogonalEdgeStyle;rounded=0;orthogonalLoop=1;jettySize=auto;html=1;exitX=1;exitY=0.3333333333333333;exitDx=0;exitDy=0;exitPerimeter=0;entryX=0;entryY=0.5;entryDx=0;entryDy=0;endArrow=none;endFill=0;" edge="1" parent="1" source="8sPyjynm3ZmWq4ErMbRn-35" target="8sPyjynm3ZmWq4ErMbRn-40">
          <mxGeometry relative="1" as="geometry">
            <mxPoint x="500" y="710" as="sourcePoint" />
            <mxPoint x="610" y="770" as="targetPoint" />
          </mxGeometry>
        </mxCell>
        <mxCell id="8sPyjynm3ZmWq4ErMbRn-40" value="&amp;lt;Extends&amp;gt;" style="text;html=1;strokeColor=none;fillColor=none;align=center;verticalAlign=middle;whiteSpace=wrap;rounded=0;" vertex="1" parent="1">
          <mxGeometry x="510" y="695" width="60" height="30" as="geometry" />
        </mxCell>
      </root>
    </mxGraphModel>
  </diagram>
</mxfile>
